<svg xmlns="http://www.w3.org/2000/svg" viewBox="0 0 500 450"><defs><style>.cls-1{fill:#6200ea;}.cls-2{fill:#fff;}</style></defs><title>logo</title><g id="Camada_2" data-name="Camada 2"><g id="Camada_1-2" data-name="Camada 1"><path class="cls-1" d="M359.3,0H140.7a30.87,30.87,0,0,0-26.86,15.67L4,209.8a30.87,30.87,0,0,0,0,30.4L113.84,434.33A30.87,30.87,0,0,0,140.7,450H359.3a30.87,30.87,0,0,0,26.86-15.67L496,240.2a30.87,30.87,0,0,0,0-30.4L386.16,15.67A30.87,30.87,0,0,0,359.3,0Z"/><path class="cls-2" d="M373.5,156h-247a9,9,0,0,0-9,9v37a9,9,0,0,0,9,9h247a9,9,0,0,0,9-9V165A9,9,0,0,0,373.5,156Zm-22.17,39.33a12.17,12.17,0,1,1,12.17-12.17A12.17,12.17,0,0,1,351.33,195.33Z"/><path class="cls-2" d="M373.5,239h-247a9,9,0,0,0-9,9v37a9,9,0,0,0,9,9h247a9,9,0,0,0,9-9V248A9,9,0,0,0,373.5,239Zm-22.17,39.33a12.17,12.17,0,1,1,12.17-12.17A12.17,12.17,0,0,1,351.33,278.33Z"/></g></g></svg>