<svg xmlns="http://www.w3.org/2000/svg" viewBox="0 0 273.84 239.97"><defs><style>.cls-1{fill:#6200ea;}.cls-2,.cls-3{fill:#fff;}.cls-3{font-size:120px;font-family:SegoeUI-Semibold, Segoe UI;font-weight:700;}</style></defs><title>mini-box</title><g id="Camada_2" data-name="Camada 2"><g id="Camada_1-2" data-name="Camada 1"><polygon class="cls-1" points="136.71 235.11 4.8 195.04 4.8 45.05 136.71 85.11 136.71 235.11"/><path class="cls-2" d="M138,230.48l-115.26-35L6.08,190.42,9.6,195v-150L3.52,49.68l115.26,35,16.65,5.06-3.52-4.63v150c0,6.18,9.6,6.19,9.6,0v-150A4.91,4.91,0,0,0,138,80.48l-115.26-35L6.08,40.42A4.84,4.84,0,0,0,0,45.05V195a4.91,4.91,0,0,0,3.52,4.63l115.26,35,16.65,5.06C141.36,241.53,143.89,232.27,138,230.48Z"/><polygon class="cls-1" points="137.13 234.77 269.04 194.71 269.04 44.72 137.13 84.78 137.13 234.77"/><path class="cls-2" d="M138.41,239.4l115.26-35,16.65-5.06a4.92,4.92,0,0,0,3.52-4.63v-150a4.84,4.84,0,0,0-6.08-4.63L152.5,75.1l-16.65,5.06a4.92,4.92,0,0,0-3.52,4.63v150c0,6.18,9.6,6.19,9.6,0v-150l-3.52,4.63,115.26-35,16.65-5.06-6.08-4.63v150l3.52-4.63-115.26,35-16.65,5.06C130,231.93,132.47,241.2,138.41,239.4Z"/><polygon class="cls-1" points="136.71 85.11 4.8 45.05 137.47 4.71 269.04 44.72 136.71 85.11"/><path class="cls-2" d="M138,80.48l-115.26-35L6.08,40.42v9.26L122.15,14.39,133,11.07c1.34-.41,4.3-.7,5.38-1.63s-2.69-.74-2,0c.29.3,1.37.42,1.75.53l8.31,2.53L213.84,33l53.93,16.4V40.09L152,75.43l-16.55,5.05c-5.89,1.8-3.38,11.07,2.55,9.26L253.77,54.4l16.55-5.05a4.84,4.84,0,0,0,0-9.26L154.05,4.74C149.12,3.24,143.94,1,138.86.12c-4-.7-9,1.88-12.67,3L58,23.87,3.52,40.42a4.84,4.84,0,0,0,0,9.26l115.26,35,16.65,5.06C141.36,91.54,143.89,82.28,138,80.48Z"/><text class="cls-3" transform="matrix(1, 0.29, 0, 1, 34.21, 169.09)">S</text></g></g></svg>