<svg xmlns="http://www.w3.org/2000/svg" xmlns:xlink="http://www.w3.org/1999/xlink" viewBox="0 0 1920.09 990.94"><defs><style>.cls-1{fill:#4c4c4c;}.cls-2{fill:#7c7c7c;}.cls-3{fill:#5b5b5b;}.cls-11,.cls-12,.cls-14,.cls-21,.cls-22,.cls-25,.cls-4,.cls-5,.cls-8,.cls-9{fill:none;}.cls-4{stroke:#9b5424;}.cls-11,.cls-12,.cls-14,.cls-21,.cls-22,.cls-25,.cls-4,.cls-8,.cls-9{stroke-miterlimit:10;}.cls-11,.cls-12,.cls-14,.cls-4,.cls-8{stroke-width:5px;}.cls-6{fill:#f7f7f7;}.cls-7{fill:#aa4900;}.cls-8{stroke:url(#linear-gradient);}.cls-9{stroke-width:7px;stroke:url(#linear-gradient-2);}.cls-10{opacity:0.71;}.cls-11{stroke:url(#linear-gradient-3);}.cls-12{stroke:url(#linear-gradient-4);}.cls-13{opacity:0.74;}.cls-14{stroke:url(#linear-gradient-5);}.cls-15{fill:url(#linear-gradient-6);}.cls-16{fill:url(#linear-gradient-7);}.cls-17{fill:url(#linear-gradient-8);}.cls-18{fill:url(#linear-gradient-9);}.cls-19{fill:#ff6d00;}.cls-20{fill:#d85903;}.cls-21{stroke-width:4px;opacity:0.5;stroke:url(#linear-gradient-10);}.cls-22{stroke:#fff;opacity:0.54;}.cls-22,.cls-25{stroke-width:6px;}.cls-23{fill:url(#linear-gradient-11);}.cls-24{fill:url(#linear-gradient-12);}.cls-25{opacity:0.9;stroke:url(#linear-gradient-13);}</style><linearGradient id="linear-gradient" x1="360.09" y1="133.38" x2="406.76" y2="133.38" gradientUnits="userSpaceOnUse"><stop offset="0" stop-color="#c15515"/><stop offset="1" stop-color="#ff8b1f"/></linearGradient><linearGradient id="linear-gradient-2" x1="1734.32" y1="229.38" x2="1810.39" y2="229.38" gradientUnits="userSpaceOnUse"><stop offset="0" stop-color="#ff9b2a"/><stop offset="1" stop-color="#ffb855"/></linearGradient><linearGradient id="linear-gradient-3" x1="199.4" y1="154.22" x2="258.11" y2="154.22" gradientTransform="translate(-36.22 77.41) rotate(-17.82)" gradientUnits="userSpaceOnUse"><stop offset="0" stop-color="#943e00"/><stop offset="1" stop-color="#d45e00"/></linearGradient><linearGradient id="linear-gradient-4" x1="1621.43" y1="260.64" x2="1680.52" y2="260.64" gradientTransform="translate(2.85 538.71) rotate(-18.55)" gradientUnits="userSpaceOnUse"><stop offset="0" stop-color="#ff9b2a"/><stop offset="0.22" stop-color="#d48200"/><stop offset="1" stop-color="#ffb855"/></linearGradient><linearGradient id="linear-gradient-5" x1="1723.63" y1="354.28" x2="1762.82" y2="354.28" gradientTransform="translate(-34.06 279.49) rotate(-9.08)" xlink:href="#linear-gradient-2"/><linearGradient id="linear-gradient-6" x1="501.24" y1="571.32" x2="561.42" y2="571.32" gradientTransform="translate(-149.36 190.04) rotate(-17.82)" xlink:href="#linear-gradient"/><linearGradient id="linear-gradient-7" x1="518.89" y1="571.33" x2="543.82" y2="571.33" gradientTransform="translate(150.07 1252.04) rotate(-107.82)" xlink:href="#linear-gradient"/><linearGradient id="linear-gradient-8" x1="617.82" y1="112.55" x2="655.23" y2="112.55" gradientTransform="translate(35.18 -124.54) rotate(11.49)" gradientUnits="userSpaceOnUse"><stop offset="0" stop-color="#ff6a00"/><stop offset="1" stop-color="#ff8f2a"/></linearGradient><linearGradient id="linear-gradient-9" x1="630.86" y1="112.55" x2="642.22" y2="112.55" gradientTransform="translate(399.45 713.92) rotate(-78.51)" xlink:href="#linear-gradient-8"/><linearGradient id="linear-gradient-10" x1="165.24" y1="485.72" x2="206.91" y2="485.72" gradientTransform="matrix(1, 0, 0, 1, 0, 0)" xlink:href="#linear-gradient-8"/><linearGradient id="linear-gradient-11" x1="1681.94" y1="136.42" x2="1705.96" y2="94.83" gradientTransform="translate(13.24 356.55) rotate(-12.06)" gradientUnits="userSpaceOnUse"><stop offset="0" stop-color="#ff7715"/><stop offset="1" stop-color="#ffbe2a"/></linearGradient><linearGradient id="linear-gradient-12" x1="1665.16" y1="165.58" x2="1722.83" y2="65.69" gradientTransform="translate(1934.93 1796.39) rotate(-102.06)" xlink:href="#linear-gradient-11"/><linearGradient id="linear-gradient-13" x1="1775.06" y1="416.82" x2="1880.34" y2="416.82" gradientUnits="userSpaceOnUse"><stop offset="0" stop-color="#ff7100"/><stop offset="1" stop-color="#ffc53f"/></linearGradient></defs><title>background-header_1</title><g id="Layer_2" data-name="Layer 2"><g id="Land_Background" data-name="Land Background"><g id="Actual_Background_Panels" data-name="Actual Background Panels"><rect class="cls-1" x="0.03" y="0.02" width="1920" height="989.93"/><polyline class="cls-2" points="1022.03 0.15 1597.81 989.9 1920.03 989.9 1920.03 0.03"/><polygon class="cls-3" points="1920.03 989.95 630.03 0.02 1920.03 0.02 1920.03 989.95"/></g><g id="Logo_and_Effects" data-name="Logo and Effects"><polygon class="cls-4" points="234.9 301.45 205.52 329.14 170.11 309.76 177.6 270.1 217.64 264.96 234.9 301.45"/><polygon class="cls-5" points="79.43 692.96 0 773.27 0 904.9 462 904.9 462 376.14 79.43 692.96"/><polygon class="cls-5" points="0 758.74 0 767.75 49.27 717.94 0 758.74"/><polygon class="cls-5" points="462 300.63 462 250.9 0 250.9 0 753.7 76.8 690.1 462 300.63"/><polygon class="cls-5" points="462 371.11 462 306.15 106.96 665.12 462 371.11"/><polygon class="cls-6" points="79.43 692.96 462 376.14 462 371.11 106.96 665.12 79.43 692.96"/><polygon class="cls-6" points="76.8 690.1 0 753.7 0 758.74 49.27 717.94 76.8 690.1"/><polygon class="cls-7" points="106.96 665.12 462 306.15 462 300.63 76.8 690.1 49.27 717.94 0 767.75 0 773.27 79.43 692.96 106.96 665.12"/><g id="Illustrations"><path class="cls-8" d="M383.42,154.22h0a20.83,20.83,0,0,1-20.83-20.83h0a20.83,20.83,0,0,1,20.83-20.83h0a20.83,20.83,0,0,1,20.83,20.83h0A20.83,20.83,0,0,1,383.42,154.22Z"/></g><g id="Illustrations-2" data-name="Illustrations"><rect class="cls-9" x="1737.82" y="194.85" width="69.07" height="69.07" rx="34.53" ry="34.53"/></g><g id="Illustrations-3" data-name="Illustrations" class="cls-10"><rect class="cls-11" x="207.92" y="133.38" width="41.67" height="41.67" transform="translate(58.18 -62.61) rotate(17.82)"/></g><g id="Illustrations-4" data-name="Illustrations"><rect class="cls-12" x="1630.14" y="239.81" width="41.67" height="41.67" transform="translate(168.67 -511.63) rotate(18.55)"/></g><g id="Illustrations-5" data-name="Illustrations" class="cls-13"><rect class="cls-14" x="1728.61" y="339.67" width="29.22" height="29.22" transform="translate(77.74 -270.62) rotate(9.08)"/></g><g id="X"><rect class="cls-15" x="500.78" y="568.05" width="61.11" height="6.55" transform="matrix(0.95, 0.31, -0.31, 0.95, 200.36, -135.2)"/><rect class="cls-16" x="500.8" y="568.05" width="61.11" height="6.55" transform="translate(1237.89 240.34) rotate(107.82)"/></g><g id="X-2" data-name="X"><rect class="cls-17" x="617.85" y="110.55" width="37.36" height="4" transform="translate(-9.66 129.05) rotate(-11.49)"/><rect class="cls-18" x="617.86" y="110.55" width="37.36" height="4" transform="translate(620.04 -533.66) rotate(78.51)"/></g><polygon class="cls-5" points="1920.09 914.97 1920.09 850.1 1799.73 701.47 1920.09 914.97"/><polygon class="cls-5" points="1575.23 370.27 1366.99 0.9 1238.2 0.9 1340.38 127.08 1575.23 370.27"/><polygon class="cls-5" points="1232.41 0.9 1218.53 0.9 1304.52 89.94 1232.41 0.9"/><polygon class="cls-5" points="1675.37 547.9 1337.01 130.07 1212.27 0.9 1154 0.9 1154 990.94 1920.09 990.94 1920.09 981.99 1675.37 547.9"/><polygon class="cls-5" points="1786.46 677.94 1920.09 842.95 1920.09 733.86 1674.78 479.83 1786.46 677.94"/><polygon class="cls-5" points="1920.09 727.38 1920.09 0.9 1404.77 0.9 1666 464.27 1920.09 727.38"/><polygon class="cls-5" points="1584 385.83 1372.88 167.21 1662.1 524.37 1584 385.83"/><polygon class="cls-19" points="1372.88 167.21 1337.01 130.07 1675.37 547.9 1662.1 524.37 1372.88 167.21"/><polygon class="cls-19" points="1799.73 701.47 1920.09 850.1 1920.09 842.95 1786.46 677.94 1799.73 701.47"/><polygon class="cls-19" points="1340.38 127.08 1238.2 0.9 1232.41 0.9 1304.52 89.94 1340.38 127.08"/><polygon class="cls-6" points="1674.78 479.83 1920.09 733.86 1920.09 727.38 1666 464.27 1674.78 479.83"/><polygon class="cls-6" points="1372.88 167.21 1584 385.83 1575.23 370.27 1340.38 127.08 1304.52 89.94 1218.53 0.9 1212.27 0.9 1337.01 130.07 1372.88 167.21"/><polygon class="cls-20" points="1584 385.83 1662.1 524.37 1675.37 547.9 1920.09 981.99 1920.09 914.97 1799.73 701.47 1786.46 677.94 1674.78 479.83 1666 464.27 1404.77 0.9 1366.99 0.9 1575.23 370.27 1584 385.83"/><polygon class="cls-21" points="192 504.83 169.07 499.2 167.34 475.64 189.2 466.72 204.44 484.76 192 504.83"/><polygon class="cls-22" points="106.07 342.9 7.28 328.07 69.52 249.94 106.07 342.9"/><g id="X-3" data-name="X"><rect class="cls-23" x="1635.36" y="109.35" width="117.17" height="12.55" transform="translate(61.57 -351.45) rotate(12.06)"/><rect class="cls-24" x="1635.41" y="109.36" width="117.17" height="12.55" transform="translate(2161.09 -1516.79) rotate(102.06)"/></g></g><rect class="cls-5" x="0.09" width="1919.99" height="990.94"/><polygon class="cls-25" points="1876.28 466.21 1780.92 436.45 1854.37 368.75 1876.28 466.21"/></g></g></svg>