<svg xmlns="http://www.w3.org/2000/svg" viewBox="0 0 133 133"><defs><style>.cls-1{fill:#ff6b00;}</style></defs><title>facebook-orange-logo</title><g id="Layer_2" data-name="Layer 2"><g id="Footer"><g id="Social_Networks" data-name="Social Networks"><path class="cls-1" d="M108.06,0H24.94A25,25,0,0,0,0,24.94v83.13A25,25,0,0,0,24.94,133h83.12A25,25,0,0,0,133,108.06V24.94A25,25,0,0,0,108.06,0ZM106,60.75,103.81,76.4l-12.4,0-.23,46.24-21.13-.17v-46l-7.77,0V60.72l7.68.15V45.63S72,30.13,87,30.13h19.22l.26,15.52h-11s-4-.55-4,3.08-.06,12-.06,12Z"/></g></g></g></svg>