<svg xmlns="http://www.w3.org/2000/svg" xmlns:xlink="http://www.w3.org/1999/xlink" viewBox="0 0 1076.46 615.14"><defs><style>.cls-1{font-size:317px;fill:#fff;font-family:LucidaConsole, Lucida Console;}.cls-2{font-size:289px;fill:#ff6700;font-family:FuturaBT-Medium, Futura Md BT;}.cls-3{fill:#9e4700;}.cls-4{fill:#aa4900;}.cls-5{fill:#cc5200;}.cls-6{fill:#e86900;}.cls-7{fill:#f98512;}.cls-8{fill:none;stroke-miterlimit:10;stroke-width:5px;stroke:url(#linear-gradient);}.cls-9{fill:#ff9d33;}.cls-10{fill:#ffaa4d;}.cls-11{fill:#ffb361;}.cls-12{fill:#ffbf73;}.cls-13{fill:#ffc688;}</style><linearGradient id="linear-gradient" x1="478.43" y1="452.52" x2="541.48" y2="452.52" gradientTransform="translate(-454.88 126.84) rotate(-23.35)" gradientUnits="userSpaceOnUse"><stop offset="0" stop-color="#bf5000"/><stop offset="1" stop-color="#ff791f"/></linearGradient></defs><title>logo-text</title><g id="Layer_2" data-name="Layer 2"><g id="Land_Background" data-name="Land Background"><g id="Logo_Name" data-name="Logo Name"><text class="cls-1" transform="translate(453.44 548.27)">W</text><text class="cls-1" transform="translate(644.45 548.27) scale(0.7)">ARE</text><text class="cls-2" transform="translate(422.81 294.66)">L</text><text class="cls-2" transform="translate(558.7 294.66) scale(0.7)">EARN</text></g><g id="Logo_and_Effects" data-name="Logo and Effects"><g id="Logo"><path class="cls-3" d="M323.34,278.83C212.27,288.19,109,298.15.34,308.75.46,250,.35,192.1,0,133.58,111.56,143.4,214.2,152.89,323,162,322.92,201.28,323,239.81,323.34,278.83Z"/><path class="cls-4" d="M362.14,264.21c-110.83,19-214.41,38.63-323,59.09.13-68.46,0-136.07-.34-204.33,111.8,19.41,214.13,38.62,323,57.59C361.73,206.11,361.83,234.95,362.14,264.21Z"/><path class="cls-5" d="M402.24,249.6c-110.58,28.54-214.49,57.95-323,88.25.15-78.18,0-155.49-.34-233.5,112,29,214.06,57.93,323,86.75C401.84,210.94,402,230.08,402.24,249.6Z"/><path class="cls-6" d="M438,235c-110.34,38.13-214.56,77.26-323,117.42.16-87.91.06-174.9-.34-262.67,112.29,38.59,214,77.24,323,115.92C437.66,215.77,437.77,225.22,438,235Z"/><path class="cls-7" d="M477.82,221.82c-110.12,46.76-214.62,94.64-323,143.67.17-96.66.07-192.38-.34-288.92C267,123.8,368.4,171.21,477.48,218.75A9.53,9.53,0,0,0,477.82,221.82Z"/><polygon class="cls-8" points="219.7 335.88 178.35 379.01 161.67 321.63 219.7 335.88"/><path class="cls-9" d="M477.83,221.35c-94,52.53-184.31,106-277.18,160.5.2-108.25.08-215.13-.38-323.2,95.59,52.92,183.85,106,277.18,159.21A10.58,10.58,0,0,0,477.83,221.35Z"/><path class="cls-10" d="M477.85,222c-80.13,56.75-157.73,114.31-237.07,172.72.21-116.75.08-231.65-.41-348.16,81.2,57.08,157.42,114.3,237.07,171.62A11.29,11.29,0,0,0,477.85,222Z"/><path class="cls-11" d="M477.87,222.14C412,284.27,347.76,347.07,282.4,410.57c.23-127.75.09-252.83-.45-380.23,66.51,62.41,129.92,124.92,195.47,187.52A12.17,12.17,0,0,0,477.87,222.14Z"/><path class="cls-12" d="M479.55,222.2c-51.9,65.72-102.86,132-154.47,198.78.25-135.26.1-266.75-.47-401.52,52.29,65.94,102.75,132,154.47,198.07A12.66,12.66,0,0,0,479.55,222.2Z"/><path class="cls-13" d="M480.77,222.35C442.64,294.43,405,366.9,367,439.78c.27-148.89.1-291.67-.52-439.78,38.33,72.24,75.74,144.55,113.78,216.91C480.2,220.87,480.36,220.75,480.77,222.35Z"/></g></g></g></g></svg>