<svg xmlns="http://www.w3.org/2000/svg" xmlns:xlink="http://www.w3.org/1999/xlink" viewBox="0 0 1920.25 615.14"><defs><style>.cls-1{font-size:317px;fill:#fff;font-family:LucidaConsole, Lucida Console;}.cls-2{font-size:289px;fill:#ff6700;font-family:FuturaBT-Medium, Futura Md BT;}.cls-3{fill:#9e4700;}.cls-4{fill:#aa4900;}.cls-5{fill:#cc5200;}.cls-6{fill:#e86900;}.cls-7{fill:#f98512;}.cls-8{fill:none;stroke-miterlimit:10;stroke-width:5px;stroke:url(#linear-gradient);}.cls-9{fill:#ff9d33;}.cls-10{fill:#ffaa4d;}.cls-11{fill:#ffb361;}.cls-12{fill:#ffbf73;}.cls-13{fill:#ffc688;}</style><linearGradient id="linear-gradient" x1="375.96" y1="340.78" x2="439.01" y2="340.78" gradientTransform="translate(-106.09 188.83) rotate(-23.35)" gradientUnits="userSpaceOnUse"><stop offset="0" stop-color="#bf5000"/><stop offset="1" stop-color="#ff791f"/></linearGradient></defs><title>Logo and image</title><g id="Layer_2" data-name="Layer 2"><g id="Land_Background" data-name="Land Background"><g id="Logo_Name" data-name="Logo Name"><text class="cls-1" transform="translate(664.07 548.27)">W</text><text class="cls-1" transform="translate(855.07 548.27) scale(0.7)">ARE</text><text class="cls-2" transform="translate(633.35 294.66)">L</text><text class="cls-2" transform="translate(769.24 294.66) scale(0.7)">EARN</text></g><g id="Logo_and_Effects" data-name="Logo and Effects"><g id="Logo"><path class="cls-3" d="M533.77,278.83c-111.07,9.36-214.34,19.32-323,29.92.12-58.73,0-116.65-.34-175.16,111.56,9.82,214.2,19.31,323,28.42C533.35,201.28,533.45,239.81,533.77,278.83Z"/><path class="cls-4" d="M572.57,264.21c-110.83,19-214.41,38.63-323,59.09.13-68.46,0-136.07-.34-204.33,111.8,19.41,214.13,38.62,323,57.59C572.16,206.11,572.27,234.95,572.57,264.21Z"/><path class="cls-5" d="M612.67,249.6c-110.58,28.54-214.49,57.95-323,88.25.15-78.18,0-155.49-.34-233.5,112,29,214.06,57.93,323,86.75C612.27,210.94,612.38,230.08,612.67,249.6Z"/><path class="cls-6" d="M648.48,235c-110.34,38.13-214.56,77.26-323,117.42.16-87.91.06-174.9-.34-262.67,112.29,38.59,214,77.24,323,115.92C648.09,215.77,648.2,225.22,648.48,235Z"/><path class="cls-7" d="M688.25,221.82c-110.12,46.76-214.62,94.64-323,143.67.17-96.66.07-192.38-.34-288.92,112.51,47.22,213.93,94.63,323,142.17A9.53,9.53,0,0,0,688.25,221.82Z"/><polygon class="cls-8" points="430.13 335.88 388.78 379.01 372.1 321.63 430.13 335.88"/><path class="cls-9" d="M688.26,221.35c-94,52.53-184.31,106-277.18,160.5.2-108.25.08-215.13-.38-323.2,95.59,52.92,183.85,106,277.18,159.21A10.58,10.58,0,0,0,688.26,221.35Z"/><path class="cls-10" d="M688.28,222c-80.13,56.75-157.73,114.31-237.07,172.72.21-116.75.08-231.65-.41-348.16,81.2,57.08,157.42,114.3,237.07,171.62A11.29,11.29,0,0,0,688.28,222Z"/><path class="cls-11" d="M688.3,222.14c-65.84,62.13-130.11,124.93-195.47,188.43.23-127.75.09-252.83-.45-380.23C558.9,92.75,622.3,155.26,687.85,217.87A12.17,12.17,0,0,0,688.3,222.14Z"/><path class="cls-12" d="M690,222.2c-51.9,65.72-102.86,132-154.47,198.78.25-135.26.1-266.75-.47-401.52,52.29,65.94,102.75,132,154.47,198.07A12.66,12.66,0,0,0,690,222.2Z"/><path class="cls-13" d="M691.2,222.35c-38.13,72.08-75.8,144.55-113.78,217.43.27-148.89.1-291.67-.52-439.78,38.33,72.24,75.74,144.55,113.78,216.91C690.63,220.87,690.79,220.75,691.2,222.35Z"/></g></g></g></g></svg>