<svg xmlns="http://www.w3.org/2000/svg" viewBox="0 0 133 133"><defs><style>.cls-1{fill:#ff6b00;}</style></defs><title>twitter-orange-logo</title><g id="Layer_2" data-name="Layer 2"><g id="Footer"><g id="Social_Networks" data-name="Social Networks"><g id="Twitter"><path class="cls-1" d="M107.83,0H25.17A25.24,25.24,0,0,0,0,25.17v82.67A25.24,25.24,0,0,0,25.17,133h82.67A25.24,25.24,0,0,0,133,107.83V25.17A25.24,25.24,0,0,0,107.83,0Zm2,44.08s3,56.33-55,65.83c0,0-26,2.33-41.5-9.5,0,0,26.5-1.83,31.5-8.83,0,0-17-2.67-19.5-15.67,0,0,5.5.5,8.67-.67,0,0-16.17-4-16.5-21.83a14.47,14.47,0,0,0,9.17,2.67s-14.33-8-6.33-29.17c0,0,17.17,21.33,45.17,23,0,0-3.83-21.5,17.17-26.67,0,0,12.17-2.5,20.17,5.83,0,0,11-1.67,14.33-4.67,0,0-1.33,7.67-8.17,11.67,0,0,8-1.17,10.67-2.67C119.67,33.42,118.67,38.25,109.83,44.08Z"/></g></g></g></g></svg>